    <svg
      xmlns="http://www.w3.org/2000/svg"
      width="738.557"
      height="195.78"
      version="1.1"
      viewBox="0 0 195.41 51.8"
    >
      <g
        fillOpacity="1"
        fillRule="nonzero"
        stroke="none"
        strokeWidth="0.035"
        transform="translate(-8.628 -191.225)"
      >
        <path
          fill="#003591"
          d="M61.107 192.276h5.467v1.65h-1.633v6.238c0 .937-.018 1.817.477 2.624.477.771 1.284 1.101 2.183 1.101.459 0 .77-.092 1.193-.275.679-.275 1.064-1.046 1.266-1.706.165-.606.128-1.32.128-1.927v-6.054h-1.614v-1.651h5.228v1.65h-1.32v5.835c0 .99.055 2.128-.349 3.064a4.686 4.686 0 01-1.945 2.183c-.697.423-2 .624-2.825.624-.807 0-1.982-.238-2.679-.624-.77-.403-1.339-1.064-1.742-1.816-.533-.954-.514-2.037-.514-3.1v-6.165h-1.321v-1.651"
        ></path>
        <path
          fill="#003591"
          d="M77.927 197.248c.624-1.248 1.56-1.835 2.936-1.835 1.504 0 2.642.935 2.862 1.835.128.514.128.899.128 1.32v5.285h1.21v1.559h-4.787v-1.56h1.137v-4.385c0-.477.018-.861-.128-1.338-.166-.588-.66-1.028-1.303-1.028-1.78 0-1.89 1.67-1.89 3.027v3.725h1.174v1.559h-4.898v-1.56h1.284v-6.641h-1.284v-1.56h3.56v1.597"
        ></path>
        <path
          fill="#003591"
          d="M87.534 191.927h2.44v2.239h-2.44zm-1.302 13.485v-1.56h1.302v-6.641h-1.302v-1.56h3.742v8.202h1.138v1.559h-4.88"
        ></path>
        <path
          fill="#003591"
          d="M91.571 195.651h4.587v1.56h-1.211l1.816 6.22h.019l2.055-6.22h-1.23v-1.56h4.293v1.56h-.752l-2.88 8.2H95.24l-2.898-8.2h-.77v-1.56"
        ></path>
        <path
          fill="#003591"
          d="M109.134 199.614c-.018-1.1-.458-2.679-1.853-2.679-1.54 0-2.036 1.395-2.146 2.68zm-4.054 1.413c-.018 1.395.569 3.01 2.238 3.01.973 0 1.651-.661 1.816-1.597h2.33c-.165 2.147-2.293 3.192-4.274 3.192-.624 0-1.468-.201-2.037-.458-.642-.294-1.064-.66-1.486-1.23-.77-.99-1.064-2.275-1.064-3.504 0-2.678 1.523-5.027 4.477-5.027 1.302 0 2.532.348 3.43 1.302.79.844 1.028 2.22 1.083 3.322.018.293.055.568.018.844 0 .054-.018.09-.018.146h-6.513"
        ></path>
        <path
          fill="#003591"
          d="M116.154 197.725c.385-1.707 1.541-2.404 3.247-2.238v2.385c-.275-.074-.568-.147-.862-.147a2.13 2.13 0 00-2 1.376c-.238.66-.238 1.56-.238 2.238v2.514h1.56v1.559h-5.285v-1.56h1.285v-6.641h-1.285v-1.56h3.578v2.074"
        ></path>
        <path
          fill="#003591"
          d="M126.118 198.789c-.11-1.046-.495-1.908-1.67-1.908-.788 0-1.522.348-1.522 1.248 0 .311.091.513.293.751.165.13.367.184.55.276 1.047.293 3.01.44 3.744 1.358.494.604.678 1.174.678 1.944.019.569-.238 1.45-.605 1.963-.44.606-1.504 1.21-2.88 1.21-.918 0-1.909-.42-2.404-1.21v.99h-1.761v-3.393h1.908c.073 1.21.605 2.055 1.908 2.055.679 0 1.376-.477 1.376-1.211 0-.367-.11-.807-.477-.99-1.1-.533-2.44-.404-3.486-1.101-.9-.624-1.247-1.468-1.247-2.551-.092-.808.384-1.395.641-1.761.368-.514 1.578-1.046 2.716-1.046.844 0 1.798.367 2.311 1.046v-.808h1.725v3.138h-1.798"
        ></path>
        <path
          fill="#003591"
          d="M130.732 191.927h2.44v2.239h-2.44zm-1.302 13.485v-1.56h1.302v-6.641h-1.302v-1.56h3.742v8.202h1.138v1.559h-4.88"
        ></path>
        <path
          fill="#003591"
          d="M141.504 202.843c0 1.157-.366 2.22-1.577 2.605a4.866 4.866 0 01-1.01.184c-.44 0-.696-.074-1.119-.184-.843-.256-1.302-.843-1.486-1.669-.091-.403-.073-1.266-.073-1.706v-4.862h-1.45v-1.56h1.45v-1.669l2.44-.826v2.495h2.44v1.56h-2.44v6.11c0 .183.11.55.294.623 1.119.46 1.045-1.1 1.027-1.761h1.504v.66"
        ></path>
        <path
          fill="#003591"
          d="M142.302 195.651h4.679v1.56h-1.267l1.872 5.155.092.239 1.87-5.394h-1.21v-1.56h4.33v1.56h-.77l-3.487 8.807c-.587 1.522-1.155 2.605-2.99 2.605-.495 0-.991 0-1.468-.092v-1.688c.33.019.66.055.991.055.88 0 1.064-.293 1.376-1.046l.128-.312-3.357-8.329h-.789v-1.56"
        ></path>
        <path
          fill="#003591"
          d="M159.973 200.514c0 .807.073 1.54.458 2.274.349.698.973 1.23 1.798 1.23.88 0 1.486-.624 1.817-1.376.275-.643.348-1.487.348-2.165 0-.807-.073-1.505-.44-2.238-.349-.68-.936-1.211-1.762-1.211-1.76 0-2.22 2.128-2.22 3.486zm-1.432 3.504c-.807-1.01-1.119-2.294-1.119-3.56 0-1.375.33-2.623 1.285-3.65.862-.918 2.165-1.395 3.412-1.395 3.137 0 4.825 2.183 4.825 5.137 0 2.826-1.743 5.082-4.752 5.082-1.32 0-2.825-.587-3.65-1.614"
        ></path>
        <path
          fill="#003591"
          d="M167.7 197.211v-1.56h1.432v-.844c0-.898.183-1.852.99-2.366.79-.532 1.541-.716 2.495-.716.459 0 .918.11 1.376.24v1.65c-.33-.055-.642-.11-.972-.11-.495 0-.9.11-1.248.495-.22.294-.201.973-.201 1.284v.367h1.669v1.56h-1.67v6.642h1.615v1.559h-5.375v-1.56h1.32v-6.641h-1.43"
        ></path>
        <path
          fill="#003591"
          d="M61.308 223.832v-1.652h1.523v-9.833h-1.523v-1.651h4.88l4.88 10.33h.02v-8.679h-1.542v-1.651h5.174v1.651h-1.431v11.485H70.04l-4.99-10.605h-.018v8.953h1.45v1.652h-5.175"
        ></path>
        <path
          fill="#003591"
          d="M81.84 218.035c-.017-1.102-.458-2.68-1.852-2.68-1.541 0-2.037 1.395-2.147 2.68zm-4.054 1.412c-.018 1.395.57 3.01 2.239 3.01.972 0 1.65-.661 1.816-1.597h2.33c-.165 2.147-2.293 3.192-4.275 3.192-.624 0-1.468-.202-2.036-.458-.642-.293-1.064-.66-1.486-1.23-.77-.99-1.064-2.275-1.064-3.504 0-2.678 1.522-5.027 4.476-5.027 1.303 0 2.532.348 3.431 1.302.789.844 1.027 2.22 1.082 3.322.019.293.055.568.019.844 0 .054-.019.09-.019.146h-6.513"
        ></path>
        <path
          fill="#003591"
          d="M89.567 214.072v1.56h-1.302l1.394 6.31h.018l2.073-7.87h2.973l1.816 7.87h.018l1.651-6.31h-1.247v-1.56h4.33v1.56h-.9l-2.348 8.2h-3.082l-1.761-7.32-2 7.32h-3.082l-2.349-8.2h-.862v-1.56h4.66"
        ></path>
        <path
          fill="#003591"
          d="M106.028 223.832v-1.652h1.504v-9.833h-1.504v-1.651h5.614v1.651h-1.596v4h5.32v-4h-1.596v-1.651h5.633v1.651h-1.523v9.833h1.523v1.652h-5.633v-1.652h1.596v-4.182h-5.32v4.183h1.596v1.651h-5.614"
        ></path>
        <path
          fill="#003591"
          d="M125.442 219.318c-1.248 0-2.385.294-2.385 1.78 0 .752.495 1.358 1.284 1.358 1.78 0 2.201-1.707 2.256-3.138zm1.34 2.955c-.551 1.228-1.725 1.78-3.047 1.78-1.357 0-2.678-.772-2.898-1.78-.202-.643-.22-.973-.22-1.266 0-.826.33-1.652.953-2.202.478-.44 1.578-.825 2.22-.844.46-.018.954-.092 1.413-.092.44 0 .88.055 1.321.074.129-1.174-.036-2.642-1.56-2.642-1.063 0-1.577.734-1.558 1.761h-2.423c.056-2.385 1.835-3.229 3.982-3.229 1.523 0 2.954.404 3.614 1.908.147.33.183.532.238.918.056.421.074.825.074 1.247v4.385h1.266v1.541h-3.376v-1.559"
        ></path>
        <path
          fill="#003591"
          d="M134.819 215.668c.624-1.247 1.65-1.835 3.064-1.835 1.302 0 2.256.495 2.715 1.835.532-1.247 1.578-1.835 2.844-1.835 1.394 0 2.385.642 2.862 1.835.238.605.165 1.045.165 1.523v5.082h1.192v1.56h-4.788v-1.56h1.156v-4.349c0-.99-.129-2.293-1.45-2.293-.715 0-1.229.33-1.54.99-.313.643-.313 1.193-.313 1.89v3.762h1.138v1.56h-4.697v-1.56h1.119v-4.513c0-.551 0-.973-.238-1.487-.184-.385-.66-.642-1.083-.642-1.027 0-1.578.624-1.853 1.542-.128.476-.128.935-.128 1.43v3.67h1.174v1.56h-4.899v-1.56h1.285v-6.642h-1.285v-1.56h3.56v1.597"
        ></path>
        <path
          fill="#003591"
          d="M152.31 216.603a5.033 5.033 0 00-.587 2.385c0 1.377.532 3.413 2.257 3.413 1.76 0 2.183-1.926 2.183-3.32 0-1.395-.275-3.652-2.11-3.652-.79 0-1.45.55-1.743 1.174zm-.587-.88c.679-1.322 1.725-1.89 2.88-1.89 1.486 0 2.477.606 3.358 1.89.385.57.715 1.78.715 3.1 0 1.469-.147 2.386-.917 3.651-.624 1.027-1.945 1.578-3.119 1.578-1.083 0-2.036-.477-2.77-1.688v2.881h1.376v1.56h-5.1v-1.56h1.284v-9.614h-1.285v-1.56h3.578v1.651"
        ></path>
        <path
          fill="#003591"
          d="M165.766 217.209c-.11-1.046-.496-1.908-1.67-1.908-.789 0-1.523.348-1.523 1.247 0 .312.092.514.294.752.165.129.367.184.55.276 1.046.293 3.01.44 3.743 1.358.495.605.679 1.174.679 1.945.018.568-.239 1.448-.605 1.962-.44.606-1.505 1.211-2.88 1.211-.918 0-1.909-.422-2.404-1.211v.991h-1.762v-3.394h1.908c.074 1.211.606 2.055 1.909 2.055.678 0 1.375-.477 1.375-1.211 0-.367-.11-.807-.477-.99-1.1-.533-2.44-.404-3.485-1.101-.9-.624-1.248-1.468-1.248-2.551-.092-.807.385-1.394.642-1.761.367-.514 1.578-1.046 2.716-1.046.843 0 1.798.367 2.311 1.046v-.807h1.725v3.137h-1.798"
        ></path>
        <path
          fill="#003591"
          d="M168.974 223.832v-1.559h1.248v-10.238h-1.248v-1.56h3.688v4.863c.679-1.083 1.504-1.505 2.789-1.505.807 0 1.78.239 2.33.862.587.66.679 1.468.679 2.312v5.266h1.23v1.56h-4.863v-1.56h1.192v-4.386c0-.366-.036-.752-.091-1.118-.055-.697-.624-1.267-1.34-1.267-.88 0-1.376.46-1.669 1.248-.275.679-.257 1.358-.257 2.074v3.45h1.193v1.558h-4.88"
        ></path>
        <path
          fill="#003591"
          d="M182.15 210.347h2.44v2.239h-2.44zm-1.303 13.485v-1.559h1.302v-6.642h-1.302v-1.56h3.743v8.202h1.137v1.56h-4.88"
        ></path>
        <path
          fill="#003591"
          d="M190.469 216.145c.386-1.706 1.541-2.404 3.247-2.238v2.385c-.275-.074-.568-.147-.862-.147-.899 0-1.688.55-2 1.376-.238.66-.238 1.56-.238 2.238v2.514h1.56v1.56h-5.284v-1.56h1.284v-6.642h-1.284v-1.56h3.577v2.074"
        ></path>
        <path
          fill="#003591"
          d="M201.046 218.035c-.018-1.102-.459-2.68-1.853-2.68-1.542 0-2.037 1.395-2.147 2.68zm-4.055 1.412c-.018 1.395.57 3.01 2.238 3.01.973 0 1.652-.661 1.817-1.597h2.33c-.165 2.147-2.293 3.192-4.275 3.192-.624 0-1.468-.202-2.037-.458-.642-.293-1.064-.66-1.485-1.23-.771-.99-1.065-2.275-1.065-3.504 0-2.678 1.523-5.027 4.477-5.027 1.303 0 2.532.348 3.43 1.302.79.844 1.028 2.22 1.083 3.322.018.293.055.568.018.844 0 .054-.018.09-.018.146h-6.513"
        ></path>
        <path
          fill="#003591"
          d="M29.76 192.29H9.128v24.81c-.005 6.509 1.781 11.685 5.46 15.825 3.05 3.435 7.508 7.567 15.172 9.6 7.661-2.033 12.12-6.164 15.171-9.6 3.678-4.14 5.463-9.316 5.458-15.826v-24.808H29.76"
        ></path>
        <path
          fill="#fff"
          d="M18.118 229.788c-2.914-3.281-4.27-7.312-4.266-12.687v-20.086H29.76v40.593c-5.671-1.78-9.058-4.911-11.642-7.82"
        ></path>
        <path
          fill="#003591"
          d="M17.732 223.844v-20.759h4.654l3.152 9.195h.058v-9.195h4.164v20.76h-4.512l-3.295-10.755h-.057v10.754h-4.164"
        ></path>
        <path
          fill="#fff"
          d="M37.411 203.085v8.131h-3.416v-8.13H29.76v20.758h4.308v-8.356h3.418v8.356h4.3v-20.759H37.41"
        ></path>
      </g>
    </svg>